<!-- Generated by IcoMoon.io -->
<svg version="1.1" xmlns="http://www.w3.org/2000/svg" width="34" height="32" viewBox="0 0 34 32">
<title>btn</title>
<path fill="#fff" d="M25.726 15.216c0 4.938-4.003 8.941-8.941 8.941s-8.941-4.003-8.941-8.941c0-4.938 4.003-8.941 8.941-8.941s8.941 4.003 8.941 8.941z"></path>
<path fill="#ae1332" d="M12.441 15.846c-0.219 0.054-0.42 0.064-0.604 0.028s-0.34-0.113-0.47-0.232c-0.126-0.119-0.215-0.277-0.267-0.472l0.477-0.119c0.043 0.158 0.132 0.28 0.267 0.363s0.301 0.101 0.497 0.053c0.173-0.043 0.298-0.118 0.374-0.225 0.078-0.11 0.101-0.23 0.068-0.361-0.026-0.105-0.072-0.184-0.136-0.238-0.062-0.054-0.139-0.092-0.232-0.114-0.090-0.023-0.192-0.038-0.306-0.046s-0.234-0.017-0.36-0.028c-0.249-0.019-0.447-0.076-0.594-0.169-0.144-0.094-0.241-0.24-0.291-0.439-0.045-0.167-0.043-0.323 0.006-0.468 0.051-0.146 0.141-0.271 0.269-0.375 0.13-0.108 0.293-0.186 0.489-0.235 0.193-0.048 0.371-0.055 0.534-0.020 0.165 0.034 0.305 0.105 0.42 0.212 0.114 0.104 0.193 0.24 0.237 0.407l-0.477 0.119c-0.019-0.077-0.057-0.144-0.114-0.202-0.057-0.061-0.13-0.105-0.218-0.131s-0.187-0.026-0.298 0.002c-0.143 0.033-0.252 0.098-0.327 0.195-0.072 0.097-0.092 0.21-0.060 0.341 0.029 0.117 0.085 0.197 0.169 0.243s0.191 0.075 0.321 0.088c0.129 0.010 0.277 0.023 0.444 0.039 0.16 0.011 0.306 0.037 0.44 0.076s0.248 0.106 0.344 0.199c0.099 0.093 0.169 0.225 0.212 0.395 0.038 0.151 0.034 0.301-0.010 0.451-0.045 0.147-0.134 0.281-0.267 0.401-0.134 0.118-0.313 0.205-0.537 0.261zM13.779 15.458l-0.744-2.983 0.452-0.113 0.319 1.278 1.445-0.36-0.319-1.278 0.452-0.113 0.744 2.983-0.452 0.113-0.333-1.334-1.445 0.36 0.333 1.334-0.452 0.113zM17.953 14.472c-0.296 0.074-0.57 0.073-0.825-0.003s-0.472-0.213-0.655-0.412c-0.183-0.202-0.313-0.455-0.388-0.759s-0.080-0.587-0.012-0.848c0.067-0.264 0.195-0.489 0.384-0.675s0.431-0.316 0.727-0.389c0.296-0.074 0.57-0.073 0.825 0.003s0.471 0.214 0.652 0.417c0.182 0.199 0.312 0.45 0.387 0.754s0.080 0.588 0.013 0.852c-0.065 0.261-0.192 0.484-0.381 0.67s-0.431 0.316-0.727 0.389zM17.852 14.067c0.205-0.051 0.371-0.141 0.499-0.269 0.131-0.129 0.218-0.29 0.26-0.481s0.035-0.405-0.024-0.641-0.152-0.428-0.28-0.578c-0.128-0.149-0.28-0.25-0.456-0.303-0.173-0.053-0.362-0.055-0.567-0.004s-0.372 0.141-0.503 0.27c-0.131 0.129-0.217 0.29-0.26 0.481-0.040 0.191-0.030 0.404 0.028 0.64s0.151 0.429 0.276 0.579c0.128 0.149 0.28 0.25 0.456 0.303s0.366 0.053 0.571 0.002zM19.751 13.969l-0.744-2.983 1.044-0.26c0.233-0.058 0.436-0.066 0.609-0.025 0.173 0.038 0.313 0.117 0.421 0.235 0.11 0.114 0.186 0.257 0.229 0.427 0.040 0.162 0.041 0.32 0.001 0.475-0.038 0.151-0.123 0.286-0.257 0.404s-0.32 0.206-0.558 0.266l-0.592 0.148 0.3 1.202-0.452 0.113zM19.811 12.284l0.571-0.142c0.213-0.053 0.354-0.136 0.422-0.25 0.070-0.117 0.086-0.255 0.046-0.414-0.041-0.165-0.12-0.281-0.236-0.348-0.114-0.071-0.278-0.080-0.491-0.027l-0.571 0.142 0.259 1.040zM12.864 20.213l-0.744-2.983 0.452-0.113 2.056 1.873-0.56-2.246 0.452-0.113 0.744 2.983-0.452 0.113-2.056-1.873 0.56 2.246-0.452 0.113zM17.088 19.214c-0.296 0.074-0.57 0.073-0.824-0.003s-0.472-0.213-0.655-0.412c-0.183-0.202-0.313-0.455-0.388-0.759s-0.080-0.587-0.012-0.848c0.067-0.264 0.195-0.489 0.384-0.675s0.431-0.316 0.727-0.389c0.295-0.074 0.57-0.073 0.824 0.003s0.471 0.214 0.652 0.417c0.182 0.199 0.312 0.45 0.387 0.754s0.080 0.588 0.013 0.852c-0.065 0.261-0.192 0.484-0.381 0.67s-0.431 0.316-0.727 0.39zM16.987 18.809c0.205-0.051 0.371-0.141 0.499-0.269 0.131-0.129 0.217-0.29 0.26-0.481s0.035-0.405-0.024-0.641c-0.059-0.236-0.152-0.428-0.28-0.578s-0.28-0.25-0.456-0.303c-0.173-0.053-0.362-0.054-0.567-0.003s-0.372 0.141-0.503 0.27c-0.131 0.129-0.218 0.29-0.26 0.481-0.040 0.191-0.030 0.404 0.028 0.64s0.151 0.429 0.276 0.579c0.128 0.149 0.28 0.25 0.456 0.303s0.366 0.053 0.571 0.003zM19.377 18.593l-1.55-2.787 0.486-0.121 1.209 2.324 0.066-2.642 0.499-0.124 1.277 2.307-0.024-2.619 0.486-0.121-0.074 3.187-0.528 0.132-1.235-2.177-0.090 2.508-0.519 0.134z"></path>
</svg>
